<svg xmlns="http://www.w3.org/2000/svg" viewBox="0 0 250 250" width="100%" height="100%">
  <defs>
    <!-- Soft, organic drop shadow matching the original logo -->
    <filter id="waz-shadow" x="-10%" y="-10%" width="130%" height="130%">
      <feDropShadow dx="6" dy="4" stdDeviation="1" flood-color="#000000" flood-opacity="1"/>
    </filter>
  </defs>

  <!-- Main Logo Group with Shadow applied -->
  <g filter="url(#waz-shadow)" fill="#92b597">
    
    <!-- Letter 'W' -->
    <path d="M 48 56 C 37 138 53 129 73 93 C 83 65 130 13 143 37 C 150 63 111 116 131 151 C 160 162 182 59 218 25 C 242 11 240 31 222 35 C 172 98 160 197 154 200 C 103 225 110 103 105 79 C 96 65 68 132 73 194 C 73 203 52 209 42 180 C 28 147 30 111 19 75 C 14 68 9 49 15 46 C 22 42 40 34 48 56 Z" />
  </g>
</svg>
